<svg width="12" height="15" viewBox="0 0 12 15" fill="none" xmlns="http://www.w3.org/2000/svg">
<path d="M2.75685 0.738852C1.48253 1.47452 0.570903 2.66258 0.190092 4.08388C-0.190801 5.50519 0.00474627 6.98983 0.740415 8.26415C1.72166 9.9636 3.55128 11.0194 5.51549 11.0194C6.13567 11.0194 6.75104 10.9126 7.33442 10.7078L9.81255 15L11.5795 13.9798L9.10177 9.68832C9.93872 8.97223 10.5413 8.02249 10.8326 6.93548C11.2134 5.51417 11.0178 4.02961 10.2822 2.75521C9.30099 1.05576 7.47128 0 5.50716 0C4.5451 0 3.59405 0.255452 2.75685 0.738852ZM8.51521 3.77538C8.97845 4.57773 9.10152 5.51254 8.86174 6.40743C8.62196 7.30233 8.04797 8.05032 7.24562 8.51356C6.71823 8.81807 6.11992 8.97901 5.51549 8.97901C4.27797 8.97901 3.12534 8.31418 2.50744 7.24398C2.0442 6.44163 1.92112 5.5069 2.16099 4.61193C2.40077 3.71703 2.97476 2.96904 3.77711 2.50571C4.30442 2.20129 4.90273 2.04035 5.50716 2.04035C6.74476 2.04035 7.89731 2.70518 8.51521 3.77538Z" fill="#06965C"/>
</svg>
